# xmcd
#
# Track frame offsets:
#	150
#	13829
#	32349
#	44283
#	58715
#	70909
#	84490
#	98447
#	114986
#	131583
#	148934
#	160553
#	177748
#	193187
#
# Disc length: 2847 seconds
#
# Revision: 4
# Processed by: cddbd v1.5.2PL0 Copyright (c) Steve Scherf et al.
# Submitted via: audiograbber 1.83.01
#
DISCID=bb0b1d0e
DTITLE=LeAnn Rimes - Lady and Gentlemen
DYEAR=2011
DGENRE=Country
TTITLE0=Swingin'
TTITLE1=Wasted Days And Wasted Nights
TTITLE2=The Only Mama That'll Walk The Line
TTITLE3=I Can't Be Myself
TTITLE4=16 Tons
TTITLE5=Help Me Make It Through The Night
TTITLE6=Rose Colored Glasses
TTITLE7=A Good Hearted Woman
TTITLE8=When I Call Your Name
TTITLE9=He Stopped Loving Her Today
TTITLE10=Blue w The Time Jumpers
TTITLE11=The Bottle Let Me Down
TTITLE12=Crazy Women
TTITLE13=Give
EXTD=
EXTT0=
EXTT1=
EXTT2=
EXTT3=
EXTT4=
EXTT5=
EXTT6=
EXTT7=
EXTT8=
EXTT9=
EXTT10=Feat. The Time Jumpers
EXTT11=
EXTT12=
EXTT13=
PLAYORDER=
